# xmcd
# 
# Track frame offsets:
#   150
#   18449
#   35692
#   52845
#   68573
#   87835
#   102408
#   120569
#   133909
#   151077
#   167909
#   186895
#   205134
#   222374
#   236146
#   256473
#   275156
# 
# Disc length: 3902 seconds
# 
# Revision: 2
# Processed by: cddbd v1.5.2PL0 Copyright (c) Steve Scherf et al.
# Submitted via: Synapstar 1.0 
# 
DISCID=f60f3c11
DTITLE=Various Artist - Chartbuster 5134-02
DYEAR=2009
DGENRE=Country
TTITLE0=Darius Rucker - Alright By Me
TTITLE1=Justin Moore - Small Town USA
TTITLE2=George Strait - Living For The Night
TTITLE3=Sara Evans - Feels Just Like A Love Song
TTITLE4=David Nail - Red Light
TTITLE5=Craig Morgan - Bonfire
TTITLE6=Bucky Covington - I Want My Life Back
TTITLE7=Eric Church - Love Your Love The Most
TTITLE8=Gloriana - Wild At Heart
TTITLE9=Holly Williams - Keep The Change
TTITLE10=Blake Shelton - I'll Just Hold On
TTITLE11=Montgomery Gentry - Long Line Of Losers
TTITLE12=Trace Adkins - All I Ask For Anymore
TTITLE13=Randy Houser - Boots On
TTITLE14=Martina McBride - I Just Call You Mine
TTITLE15=Chuck Wicks - Man Of The House
TTITLE16=Jonathan Singleton and The Grove - Livin' In Paradise
EXTD=MediaType: Karaoke CD+G Producer: Chartbuster
EXTT0=
EXTT1=
EXTT2=
EXTT3=
EXTT4=
EXTT5=
EXTT6=
EXTT7=
EXTT8=
EXTT9=
EXTT10=
EXTT11=
EXTT12=
EXTT13=
EXTT14=
EXTT15=
EXTT16=
PLAYORDER=
